HIERARCHY
ROOT root
{
	OFFSET 0.000000 0.000000 0.000000
	CHANNELS 6 Xposition Yposition Zposition Zrotation Yrotation Xrotation
	JOINT lhip
	{
		OFFSET 0.058581 -0.082280 -0.017664
		CHANNELS 3 Zrotation Yrotation Xrotation
		JOINT lknee
		{
			OFFSET 0.043451 -0.386469 0.008037
			CHANNELS 3 Zrotation Yrotation Xrotation
			JOINT lankle
			{
				OFFSET -0.014790 -0.426874 -0.037428
				CHANNELS 3 Zrotation Yrotation Xrotation
				JOINT ltoe
				{
					OFFSET 0.041054 -0.060286 0.122042
					CHANNELS 3 Zrotation Yrotation Xrotation
					End Site
					{
						OFFSET 0.000000 0.000000 0.000000
					}
				}
			}
		}
	}
	JOINT rhip
	{
		OFFSET -0.060310 -0.090513 -0.013543
		CHANNELS 3 Zrotation Yrotation Xrotation
		JOINT rknee
		{
			OFFSET -0.043257 -0.383688 -0.004843
			CHANNELS 3 Zrotation Yrotation Xrotation
			JOINT rankle
			{
				OFFSET 0.019056 -0.420046 -0.034562
				CHANNELS 3 Zrotation Yrotation Xrotation
				JOINT rtoe
				{
					OFFSET -0.034840 -0.062106 0.130323
					CHANNELS 3 Zrotation Yrotation Xrotation
					End Site
					{
						OFFSET 0.000000 0.000000 0.000000
					}
				}
			}
		}
	}
	JOINT lowerback
	{
		OFFSET 0.004439 0.124404 -0.038385
		CHANNELS 3 Zrotation Yrotation Xrotation
		JOINT upperback
		{
			OFFSET 0.004488 0.137956 0.026820
			CHANNELS 3 Zrotation Yrotation Xrotation
			JOINT chest
			{
				OFFSET -0.002265 0.056032 0.002855
				CHANNELS 3 Zrotation Yrotation Xrotation
				JOINT lowerneck
				{
					OFFSET -0.013390 0.211636 -0.033468
					CHANNELS 3 Zrotation Yrotation Xrotation
					JOINT upperneck
					{
						OFFSET 0.010113 0.088937 0.050410
						CHANNELS 3 Zrotation Yrotation Xrotation
						End Site
						{
							OFFSET 0.000000 0.000000 0.000000
						}
					}
				}
				JOINT lclavicle
				{
					OFFSET 0.071702 0.114000 -0.018898
					CHANNELS 3 Zrotation Yrotation Xrotation
					JOINT lshoulder
					{
						OFFSET 0.122921 0.045205 -0.019046
						CHANNELS 3 Zrotation Yrotation Xrotation
						JOINT lelbow
						{
							OFFSET 0.255332 -0.015649 -0.022946
							CHANNELS 3 Zrotation Yrotation Xrotation
							JOINT lwrist
							{
								OFFSET 0.265709 0.012698 -0.007375
								CHANNELS 3 Zrotation Yrotation Xrotation
								End Site
								{
									OFFSET 0.000000 0.000000 0.000000
								}
							}
						}
					}
				}
				JOINT rclavicle
				{
					OFFSET -0.082954 0.112472 -0.023707
					CHANNELS 3 Zrotation Yrotation Xrotation
					JOINT rshoulder
					{
						OFFSET -0.113228 0.046853 -0.008472
						CHANNELS 3 Zrotation Yrotation Xrotation
						JOINT relbow
						{
							OFFSET -0.260127 -0.014369 -0.031269
							CHANNELS 3 Zrotation Yrotation Xrotation
							JOINT rwrist
							{
								OFFSET -0.269108 0.006794 -0.006027
								CHANNELS 3 Zrotation Yrotation Xrotation
								End Site
								{
									OFFSET 0.000000 0.000000 0.000000
								}
							}
						}
					}
				}
			}
		}
	}
}
MOTION
Frames: 13
Frame Time: 0.033333
0.275398 0.154691 0.978040 9.583208 -0.728674 99.649870 -6.795266 1.289362 -5.176874 -3.660830 -4.395055 -1.368721 6.868296 14.731358 -11.294576 0.000000 -0.000000 0.000000 -26.185614 -7.720758 2.665387 -1.784447 1.686978 4.726280 19.750358 -15.855503 23.082557 0.000000 -0.000000 0.000000 7.260315 -1.650405 -3.877055 2.183583 -8.066846 -24.494761 1.904500 3.272280 10.617899 -1.934096 27.961260 7.951566 -0.064145 30.018851 -17.469462 32.377142 -1.272380 -20.830984 7.318670 -12.317727 -18.421228 12.747506 -3.744031 -17.119032 -16.444812 -13.071753 -27.620539 -30.412681 -9.556281 -17.977953 -8.495838 1.113801 -21.090958 -119.958162 67.214457 -125.946756 19.752652 15.320403 -27.042456 
0.275541 0.154336 0.978262 9.547213 -0.723128 99.369726 -6.889003 1.427931 -4.811578 -3.340342 -4.805117 -1.404025 6.559324 14.773329 -11.359383 0.000000 -0.000000 0.000000 -26.267588 -8.146299 2.836911 -1.688449 1.703546 4.873196 19.100962 -15.755000 23.399290 0.000000 -0.000000 0.000000 7.334261 -1.721648 -3.491013 2.169156 -8.043608 -25.080165 2.163545 3.456265 11.170283 -2.386681 27.903565 7.979048 -0.230245 29.805466 -17.482156 32.016926 -1.346163 -21.195171 7.476671 -12.400500 -18.391226 12.525184 -3.641142 -16.694329 -15.712349 -12.952455 -28.014279 -30.512672 -9.807666 -18.086148 -8.800962 1.216552 -21.254692 -119.847993 67.452214 -125.753100 18.428291 15.086676 -27.886061 
0.275619 0.154403 0.978222 9.419989 -0.819419 99.372132 -7.034946 1.410661 -4.849597 -3.310026 -4.805877 -1.365073 6.539706 14.931105 -11.297391 0.000000 -0.000000 0.000000 -26.447583 -8.177633 2.744223 -1.566440 1.656564 4.904952 19.099962 -15.830517 23.453025 0.000000 -0.000000 0.000000 7.361362 -1.703148 -3.575392 2.067815 -8.002494 -25.080939 1.936170 3.422987 11.192273 -2.273132 27.840572 8.118255 -0.151631 29.894807 -17.731623 32.098128 -1.343941 -21.106042 7.793901 -12.220823 -18.500899 12.340267 -3.592543 -16.424102 -16.294105 -13.063306 -27.827979 -30.505261 -9.616422 -17.830418 -8.440419 0.965156 -21.504161 -119.646780 67.225506 -125.247374 18.913490 14.629867 -27.631050 
0.275764 0.154265 0.978169 9.249457 -0.797085 99.316106 -6.992390 1.667307 -4.835048 -3.443209 -4.656926 -1.263850 6.434704 14.689181 -11.393186 0.000000 -0.000000 0.000000 -26.423059 -8.208505 2.691841 -1.716729 1.722506 4.930551 19.198577 -15.752450 23.476492 0.000000 -0.000000 0.000000 7.411336 -1.641340 -3.572191 2.148106 -7.944343 -25.122466 1.969875 3.279238 11.249911 -2.589251 28.037058 8.238845 -0.140015 29.728335 -17.783082 31.825840 -1.227939 -21.229916 7.782659 -11.977825 -18.322611 12.694581 -3.909979 -16.830090 -16.181156 -12.963372 -28.262026 -30.342117 -9.575691 -17.879779 -9.003623 1.345342 -21.499890 -119.192005 67.228580 -124.823419 18.228106 14.844115 -27.968773 
0.276169 0.154265 0.978084 9.077950 -0.917317 99.270258 -7.221993 1.684709 -4.713123 -3.327813 -4.578173 -1.401325 6.504893 14.743096 -11.332014 0.000000 -0.000000 0.000000 -26.547717 -8.129807 2.729815 -1.854387 1.637540 4.787241 19.142057 -15.714123 23.681086 0.000000 -0.000000 0.000000 7.294469 -1.631479 -3.566377 2.144594 -7.896320 -24.993826 1.903764 3.191650 11.086642 -2.241771 27.998192 8.353989 -0.326425 29.912812 -17.705017 31.923771 -1.086808 -21.080005 7.699218 -11.895341 -18.570986 12.958437 -4.064547 -17.163236 -16.400120 -13.139565 -27.884827 -30.483331 -9.477473 -17.727825 -8.607032 1.282904 -21.506524 -118.883998 67.062745 -124.307410 18.653450 14.845906 -27.594228 
0.275495 0.154278 0.978106 9.119706 -0.753293 99.347966 -6.911724 1.765773 -4.903022 -3.473153 -4.540040 -1.220558 6.382672 14.613144 -11.449603 0.000000 -0.000000 0.000000 -26.239507 -8.181469 2.729998 -1.982869 1.620921 4.643019 18.995899 -15.798677 23.548500 0.000000 -0.000000 0.000000 7.475593 -1.570854 -3.588352 2.163955 -7.926838 -25.165613 1.877464 3.171677 11.020282 -2.320185 27.917059 8.434248 -0.439903 29.966373 -17.711886 31.963716 -1.056683 -21.078939 7.528407 -11.948507 -18.514444 13.127016 -4.161108 -17.280982 -15.572642 -12.977291 -28.449735 -30.724745 -9.660040 -17.973775 -8.391520 1.544607 -21.367981 -119.972005 67.355851 -125.227033 17.172064 15.132758 -27.668269 
0.275414 0.154497 0.977873 9.131722 -0.827716 99.362686 -6.976776 1.594020 -4.875693 -3.477020 -4.482214 -1.289057 6.482788 14.597399 -11.391542 0.000000 -0.000000 0.000000 -26.342620 -8.129724 2.773468 -1.854770 1.659748 4.598889 19.120112 -15.797801 23.510748 0.000000 -0.000000 0.000000 7.479367 -1.685597 -3.676000 2.141436 -8.045344 -25.092554 1.924201 3.293968 11.046062 -2.421651 28.076825 8.290751 -0.485385 29.792207 -17.589461 32.059879 -0.753726 -21.026398 7.197463 -11.997646 -18.426050 13.170221 -4.052071 -17.034527 -16.089970 -13.381503 -28.327135 -30.718582 -10.034700 -17.857769 -8.253774 1.828983 -21.361903 -119.829465 66.995973 -124.955145 18.351645 14.728157 -27.564793 
0.275371 0.154512 0.977884 9.107948 -0.804000 99.290017 -6.924270 1.754921 -4.875922 -3.559959 -4.434752 -1.145770 6.423092 14.463854 -11.460779 0.000000 -0.000000 0.000000 -26.242580 -8.139724 2.809090 -1.989296 1.592741 4.604300 19.076993 -15.833369 23.475148 0.000000 -0.000000 0.000000 7.683825 -1.810101 -3.612917 2.047497 -8.093448 -25.347095 1.916252 3.360769 11.254625 -2.401596 28.419961 8.407031 -0.466106 29.649927 -17.671228 32.119340 -0.847527 -21.114676 7.295014 -11.805190 -18.597950 13.084747 -3.845618 -16.868929 -16.766263 -13.666045 -28.232185 -31.193027 -9.784161 -17.603713 -7.524891 1.159167 -21.721198 -120.551199 66.916823 -125.568111 18.987166 14.823169 -27.270779 
0.276146 0.154194 0.977630 8.838123 -0.628365 98.981273 -6.854306 2.161122 -4.446632 -3.506110 -4.524380 -1.315528 6.393878 14.522983 -11.478026 0.000000 -0.000000 0.000000 -26.105865 -8.168138 2.946854 -2.157196 1.849486 4.598749 19.158542 -15.874350 23.469887 0.000000 -0.000000 0.000000 8.099711 -1.838900 -3.412435 1.919636 -7.892032 -25.280553 1.836030 3.542406 11.436754 -2.103071 28.442214 8.306103 -0.728961 29.584679 -17.637580 32.298941 -0.713377 -21.150870 6.959607 -11.799862 -18.761475 13.171982 -4.001827 -16.997514 -16.423961 -13.065029 -28.048992 -31.476670 -9.624257 -17.632346 -7.428343 0.698856 -22.003624 -120.554063 67.110303 -125.677843 18.415354 14.694633 -27.159256 
0.276332 0.154312 0.977404 8.797432 -0.647122 98.948916 -6.869749 2.162577 -4.502042 -3.527481 -4.686060 -1.179005 6.357700 14.637318 -11.492355 0.000000 -0.000000 0.000000 -26.192941 -8.392001 2.884888 -2.054624 1.824216 4.699908 18.897021 -15.785094 23.534442 0.000000 -0.000000 0.000000 8.156481 -1.833328 -3.501126 1.762932 -7.811085 -25.149645 1.858644 3.848731 11.412456 -1.687851 28.120547 8.176230 -0.486325 29.598303 -17.377291 32.088618 -1.029563 -21.217760 7.241801 -12.046648 -18.622997 13.346121 -3.912732 -17.084545 -16.433293 -12.755250 -27.885432 -31.204422 -9.735494 -17.955116 -7.707314 0.522115 -21.809565 -120.560444 67.062277 -126.087479 18.762482 14.730289 -27.392238 
0.276468 0.154552 0.977359 8.787003 -0.691473 98.890434 -6.920262 2.089052 -4.458569 -3.559278 -4.733056 -1.146456 6.472345 14.756321 -11.487579 0.000000 -0.000000 0.000000 -26.302534 -8.429924 2.931798 -2.046017 1.752778 4.728601 18.783652 -15.681845 23.621023 0.000000 -0.000000 0.000000 8.068314 -1.801184 -3.541576 1.843144 -7.804045 -24.971028 1.840762 3.762202 11.371426 -1.659160 28.277831 8.195150 -0.499679 29.564688 -17.298864 32.193392 -0.930622 -21.101418 7.026553 -11.947521 -18.662608 13.241028 -3.782319 -16.708855 -17.068795 -12.981731 -27.709518 -31.331096 -9.660439 -17.798061 -7.410743 0.197833 -21.959364 -120.286404 66.949101 -125.902812 20.006585 14.532601 -27.003002 
0.276579 0.154822 0.977248 8.743447 -0.637173 98.901019 -6.833768 2.050390 -4.532253 -3.629527 -4.645296 -1.071415 6.501721 14.710281 -11.484291 0.000000 -0.000000 0.000000 -26.377124 -8.304231 2.854488 -1.799367 1.786360 4.823906 18.946725 -15.569592 23.576374 0.000000 -0.000000 0.000000 8.278190 -1.837771 -3.658965 1.762576 -7.829545 -24.826845 1.802731 3.830249 11.314291 -1.536299 28.559621 8.365437 -0.612815 29.697866 -17.463188 31.985162 -0.886974 -21.307748 7.292767 -12.226105 -18.834969 13.355280 -3.460784 -16.931602 -17.620434 -13.349763 -27.515617 -31.364463 -9.798039 -17.649767 -7.109952 0.437521 -22.166502 -120.229745 66.684139 -125.618410 20.868728 14.532616 -26.579575 
0.277101 0.155338 0.977162 8.851046 -0.670322 98.898202 -6.906028 1.938688 -4.643974 -3.650681 -4.764170 -0.915653 6.462586 14.813687 -11.571636 0.000000 -0.000000 0.000000 -26.430298 -8.301857 2.857384 -1.722400 1.705539 4.869199 18.944748 -15.763958 23.417939 0.000000 -0.000000 0.000000 8.449454 -1.908162 -3.638131 1.824765 -7.943264 -24.902682 1.781997 3.769482 11.395135 -2.584680 28.179463 8.576248 -1.311382 29.407886 -17.904919 31.883732 -0.808085 -21.211114 7.184673 -11.806778 -18.676744 13.204762 -3.937579 -16.791456 -16.281339 -13.007185 -28.118266 -31.045885 -9.789641 -17.848401 -7.802293 0.875829 -22.204605 -119.973843 66.648285 -125.271939 18.551464 14.318234 -26.846112 
